<svg id="SvgjsSvg1430" width="100%" height="100%" xmlns="http://www.w3.org/2000/svg" version="1.1" xmlns:xlink="http://www.w3.org/1999/xlink" xmlns:svgjs="http://svgjs.com/svgjs" viewBox="0 0 400 400"><defs id="SvgjsDefs1431"></defs><g id="SvgjsG1433"><svg width="400" height="400" x="0" y="0" xmlns="http://www.w3.org/2000/svg" version="1.1" xmlns:xlink="http://www.w3.org/1999/xlink" xmlns:svgjs="http://svgjs.com/svgjs" preserveAspectRatio="none"><rect width="400" height="400" stroke-width="0" stroke="#003f7d" stroke-opacity="1" fill="#00274a" fill-opacity="1" x="0" y="0" rx="50%" ry="50%"></rect><defs id="SvgjsDefs1432"></defs></svg></g><g id="SvgjsG1435" transform="rotate(0 200 155.0234375)"><svg xmlns="http://www.w3.org/2000/svg" xmlns:xlink="http://www.w3.org/1999/xlink" version="1.1" x="117.5" y="68.953125" viewBox="5.775000095367432 3.8600001335144043 88.44400787353516 92.27801513671875" enable-background="new 0 0 100 100" xml:space="preserve" width="165" height="172.140625" xmlns:svgjs="http://svgjs.com/svgjs" preserveAspectRatio="none" fill="#9ed2ff" stroke="none"><path d="M90.396,50v-3.86v-3.83h-3.86v-3.86h-3.83v-3.83h-3.859v-3.86h-3.83v-3.83h-3.86v-3.86h-3.83v-3.83h-3.86v-3.86h-3.83v-3.83  h-3.859V7.69h-3.83V3.86h-3.859v3.83h-3.861v3.86h-3.829v3.83h-3.86v3.86h-3.83v3.83h-3.859v3.86h-3.83v3.83h-3.86v3.86h-3.83v3.83  h-3.86v3.86h-3.83v3.83V50H5.775v3.86v3.83v3.86v3.83v3.859h3.859v3.83h3.83v3.859h3.86v3.83h3.83h3.86h3.83h3.859h3.83v-3.83h3.86  v3.83v3.861h-3.86v3.829h-3.83v3.86h-3.859v3.83h3.859h3.83h3.86h3.829h3.861h3.859h3.83h3.859h3.83h3.86h3.83v-3.83h-3.83v-3.86  h-3.86v-3.829h-3.83V80.76v-3.83h3.83v3.83h3.86h3.83h3.86h3.83h3.859v-3.83h3.83V73.07h3.86v-3.83h3.829v-3.859v-3.83v-3.86v-3.83  V50H90.396z M90.396,57.69v3.86v3.83h-3.86v3.859h-3.83v3.83h-3.859v3.859h-3.83h-3.86h-3.83V73.07h-3.86h-3.83h-3.859v3.859v3.83  v3.861v3.829h3.859v3.86h-3.859h-3.83h-3.859h-3.861h-3.829v-3.86h3.829v-3.829V80.76v-3.83V73.07h-3.829h-3.86h-3.83v3.859h-3.859  h-3.83h-3.86V73.07h-3.83v-3.83h-3.86v-3.859h-3.83v-3.83v-3.86v-3.83h3.83V50v-3.86h3.86v-3.83h3.83v-3.86h3.86v-3.83h3.83v-3.86  h3.859v-3.83h3.83v-3.86h3.86v-3.83h3.829v-3.86h3.861v-3.83h3.859v3.83h3.83v3.86h3.859v3.83h3.83v3.86h3.86v3.83h3.83v3.86h3.86  v3.83h3.83v3.86h3.859v3.83h3.83V50v3.86h3.86V57.69z"></path><defs id="SvgjsDefs1434"></defs></svg></g><g id="SvgjsG1437" transform="rotate(0 200.0078125 280.5859375)"><svg xmlns="http://www.w3.org/2000/svg" xmlns:xlink="http://www.w3.org/1999/xlink" width="273.984375" viewBox="0.8799999952316284 8.930000305175781 273.989990234375 33" overflow="visible" style="overflow: visible;" transform="" version="1.1" xmlns:svgjs="http://svgjs.com/svgjs" preserveAspectRatio="none" height="32.984375" x="63.015625" y="264.09375" fill="#000000" stroke="none"><path stroke="none" fill="#2d79c6" fill-opacity="1" d="M14.43 35.82L14.43 12.45L11.35 12.45L11.35 8.93L21.12 8.93L21.12 12.45L18.48 12.45L18.48 37.09L13.90 41.93L5.46 41.93L0.88 37.09L0.88 29.35L4.40 29.35L4.40 35.29L7.17 38.15L12.14 38.15L14.43 35.82ZM46.68 12.45L46.68 8.93L65.42 8.93L70 13.77L70 37.09L65.42 41.93L46.68 41.93L46.68 38.41L49.76 38.41L49.76 12.45L46.68 12.45ZM53.81 12.72L53.81 38.15L63.66 38.15L65.95 35.82L65.95 15.05L63.71 12.72L53.81 12.72ZM103.77 41.93L94.44 41.93L94.44 38.41L97.34 38.41L95.45 32.96L84.45 32.96L82.56 38.41L85.51 38.41L85.51 41.93L76.18 41.93L76.18 38.41L78.51 38.41L85.95 16.85L84.10 16.85L84.10 13.33L95.85 13.33L95.85 16.85L93.96 16.85L101.39 38.41L103.77 38.41L103.77 41.93ZM94.26 29.44L89.95 16.98L85.64 29.44L94.26 29.44ZM106.65 16.85L104.23 16.85L104.23 13.33L113.56 13.33L113.56 16.85L110.70 16.85L118.44 38.46L126.23 16.85L123.37 16.85L123.37 13.33L132.70 13.33L132.70 16.85L130.28 16.85L121.26 41.93L115.67 41.93L106.65 16.85ZM138.66 41.93L138.66 38.41L142.18 38.41L142.18 16.85L138.66 16.85L138.66 13.33L149.74 13.33L149.74 16.85L146.22 16.85L146.22 38.41L149.74 38.41L149.74 41.93L138.66 41.93ZM177.70 18.17L177.70 23.72L174.05 23.72L174.05 19.84L171.41 17.12L164.68 17.12L162.39 19.45L162.39 23.76L164.55 25.96L173.70 25.96L178.14 30.62L178.14 37.09L173.57 41.93L162.48 41.93L157.90 37.09L157.90 31.55L161.56 31.55L161.56 35.42L164.24 38.15L171.85 38.15L174.10 35.82L174.10 31.90L171.98 29.74L162.83 29.74L158.34 25.04L158.34 18.17L162.92 13.33L173.13 13.33L177.70 18.17ZM206.10 18.17L206.10 23.72L202.45 23.72L202.45 19.84L199.81 17.12L193.08 17.12L190.79 19.45L190.79 23.76L192.95 25.96L202.10 25.96L206.54 30.62L206.54 37.09L201.97 41.93L190.88 41.93L186.30 37.09L186.30 31.55L189.96 31.55L189.96 35.42L192.64 38.15L200.25 38.15L202.50 35.82L202.50 31.90L200.38 29.74L191.23 29.74L186.74 25.04L186.74 18.17L191.32 13.33L201.53 13.33L206.10 18.17ZM232.13 41.93L219.72 41.93L215.14 37.09L215.14 18.17L219.72 13.33L232.13 13.33L236.70 18.17L236.70 37.09L232.13 41.93ZM219.19 35.82L221.44 38.15L230.37 38.15L232.66 35.82L232.66 19.45L230.41 17.12L221.48 17.12L219.19 19.45L219.19 35.82ZM252.87 17.69L252.87 38.41L255.95 38.41L255.95 41.93L245.74 41.93L245.74 38.41L248.82 38.41L248.82 16.85L245.74 16.85L245.74 13.33L254.90 13.33L267.74 37.62L267.74 16.85L264.66 16.85L264.66 13.33L274.87 13.33L274.87 16.85L271.79 16.85L271.79 41.93L265.72 41.93L252.87 17.69Z" transform="rotate(0 137.87499511241913 25.43000030517578)"></path><defs id="SvgjsDefs1436"></defs></svg></g><g id="SvgjsG1439" transform="rotate(0 200.0078125 319.0703125)"><svg xmlns="http://www.w3.org/2000/svg" xmlns:xlink="http://www.w3.org/1999/xlink" width="226.078125" viewBox="0.48000001907348633 4.869999885559082 226.0800018310547 18" overflow="visible" style="overflow: visible;" transform="" version="1.1" xmlns:svgjs="http://svgjs.com/svgjs" preserveAspectRatio="none" height="17.984375" x="86.96875" y="310.078125" fill="#000000" stroke="none"><path stroke="none" fill="#2d79c6" fill-opacity="1" d="M1.58 6.79L0.48 6.79L0.48 4.87L5.57 4.87L5.57 6.79L3.79 6.79L7.27 20.23L10.75 6.79L9.72 6.79L9.72 4.87L14.90 4.87L14.90 6.79L13.85 6.79L17.33 20.23L20.81 6.79L19.06 6.79L19.06 4.87L24.14 4.87L24.14 6.79L23.02 6.79L18.86 22.87L15.91 22.87L12.31 8.98L8.71 22.87L5.76 22.87L1.58 6.79ZM28.54 9.19L28.54 7.27L39.97 7.27L39.97 11.98L38.05 11.98L38.05 9.19L32.43 9.19L32.43 14.11L38.05 14.11L38.05 16.03L32.43 16.03L32.43 20.95L38.05 20.95L38.05 18.17L39.97 18.17L39.97 22.87L28.54 22.87L28.54 20.95L30.22 20.95L30.22 9.19L28.54 9.19ZM45.81 9.19L45.81 7.27L55.41 7.27L57.90 9.91L57.90 13.27L56.61 14.64L58.38 16.49L58.38 20.23L55.89 22.87L45.81 22.87L45.81 20.95L47.49 20.95L47.49 9.19L45.81 9.19ZM54.81 15.77L49.70 15.77L49.70 20.81L54.93 20.81L56.32 19.39L56.32 17.33L54.81 15.77ZM54.47 9.34L49.70 9.34L49.70 13.85L54.45 13.85L55.84 12.43L55.84 10.75L54.47 9.34ZM74.62 6.79L74.62 4.87L84.85 4.87L87.34 7.51L87.34 20.23L84.85 22.87L74.62 22.87L74.62 20.95L76.30 20.95L76.30 6.79L74.62 6.79ZM78.51 6.94L78.51 20.81L83.89 20.81L85.14 19.54L85.14 8.21L83.91 6.94L78.51 6.94ZM93.18 9.19L93.18 7.27L104.61 7.27L104.61 11.98L102.69 11.98L102.69 9.19L97.07 9.19L97.07 14.11L102.69 14.11L102.69 16.03L97.07 16.03L97.07 20.95L102.69 20.95L102.69 18.17L104.61 18.17L104.61 22.87L93.18 22.87L93.18 20.95L94.86 20.95L94.86 9.19L93.18 9.19ZM110.33 9.19L109.01 9.19L109.01 7.27L114.10 7.27L114.10 9.19L112.54 9.19L116.76 20.98L121.01 9.19L119.45 9.19L119.45 7.27L124.54 7.27L124.54 9.19L123.22 9.19L118.30 22.87L115.25 22.87L110.33 9.19ZM128.94 9.19L128.94 7.27L140.36 7.27L140.36 11.98L138.44 11.98L138.44 9.19L132.82 9.19L132.82 14.11L138.44 14.11L138.44 16.03L132.82 16.03L132.82 20.95L138.44 20.95L138.44 18.17L140.36 18.17L140.36 22.87L128.94 22.87L128.94 20.95L130.62 20.95L130.62 9.19L128.94 9.19ZM146.20 9.19L146.20 7.27L152.01 7.27L152.01 9.19L150.09 9.19L150.09 20.95L155.32 20.95L155.32 18.17L157.14 18.17L157.14 22.87L146.20 22.87L146.20 20.95L147.88 20.95L147.88 9.19L146.20 9.19ZM170.81 22.87L164.04 22.87L161.54 20.23L161.54 9.91L164.04 7.27L170.81 7.27L173.30 9.91L173.30 20.23L170.81 22.87ZM163.75 19.54L164.98 20.81L169.85 20.81L171.10 19.54L171.10 10.61L169.87 9.34L165 9.34L163.75 10.61L163.75 19.54ZM179.14 9.19L179.14 7.27L188.74 7.27L191.24 9.91L191.24 14.95L188.74 17.59L183.03 17.59L183.03 20.95L184.95 20.95L184.95 22.87L179.14 22.87L179.14 20.95L180.82 20.95L180.82 9.19L179.14 9.19ZM187.81 9.34L183.03 9.34L183.03 15.53L187.78 15.53L189.18 14.11L189.18 10.75L187.81 9.34ZM196.12 9.19L196.12 7.27L207.54 7.27L207.54 11.98L205.62 11.98L205.62 9.19L200.01 9.19L200.01 14.11L205.62 14.11L205.62 16.03L200.01 16.03L200.01 20.95L205.62 20.95L205.62 18.17L207.54 18.17L207.54 22.87L196.12 22.87L196.12 20.95L197.80 20.95L197.80 9.19L196.12 9.19ZM213.38 9.19L213.38 7.27L222.98 7.27L225.48 9.91L225.48 14.71L223.06 17.26L225.29 20.95L226.56 20.95L226.56 22.87L222.29 22.87L222.29 20.95L222.96 20.95L220.80 17.35L217.27 17.35L217.27 20.95L218.71 20.95L218.71 22.87L213.38 22.87L213.38 20.95L215.06 20.95L215.06 9.19L213.38 9.19ZM222.05 9.34L217.27 9.34L217.27 15.29L222.02 15.29L223.42 13.87L223.42 10.75L222.05 9.34Z" transform="rotate(0 113.52000093460083 13.869999885559082)"></path><defs id="SvgjsDefs1438"></defs></svg></g></svg>
